<svg xmlns="http://www.w3.org/2000/svg" xmlns:xlink="http://www.w3.org/1999/xlink" width="1200" zoomAndPan="magnify" viewBox="0 0 900 201.000001" height="268" preserveAspectRatio="xMidYMid meet" version="1.2"><defs><clipPath id="884f9cb2e8"><path d="M 5.210938 0 L 169 0 L 169 200 L 5.210938 200 Z M 5.210938 0 "/></clipPath><clipPath id="c7d18b32d8"><path d="M 564 33 L 564.996094 33 L 564.996094 34 L 564 34 Z M 564 33 "/></clipPath><clipPath id="2e067a8fa8"><rect x="0" width="565" y="0" height="42"/></clipPath><clipPath id="5a11ac6135"><rect x="0" width="579" y="0" height="189"/></clipPath><clipPath id="8cc39f97e0"><path d="M 292 0 L 296 0 L 296 200.003906 L 292 200.003906 Z M 292 0 "/></clipPath></defs><g id="7bb60ed4d8"><path style=" stroke:none;fill-rule:nonzero;fill:#5c6bc0;fill-opacity:1;" d="M 169.441406 128.929688 L 169.441406 173.28125 C 147.65625 173.28125 136.597656 153.601562 136.597656 144.589844 L 136.597656 108.136719 C 148.386719 99.378906 155.734375 82.773438 157.933594 75.566406 C 160.65625 74.011719 164.679688 74.179688 166.355469 74.457031 C 172.304688 98.851562 190.824219 104.855469 199.339844 104.8125 C 211.039062 104.488281 234.429688 97.1875 234.429688 70.574219 C 234.429688 43.960938 212.253906 35.183594 201.164062 34.121094 L 155.125 34.121094 C 148.386719 18.320312 132.9375 6.445312 124.382812 1.964844 C 149.324219 1.964844 199.96875 1.703125 202.988281 1.964844 C 206.21875 2.242188 212.394531 2.796875 221.097656 5.566406 C 239.484375 11.425781 250.925781 25.113281 255.628906 32.179688 C 259.371094 37.078125 266.855469 51.613281 266.855469 70.574219 C 266.855469 89.535156 258.058594 104.996094 253.664062 110.355469 C 249.824219 116.441406 236.984375 129.976562 216.324219 135.441406 C 195.664062 140.910156 176.460938 133.378906 169.441406 128.929688 Z M 169.441406 128.929688 "/><g clip-rule="nonzero" clip-path="url(#884f9cb2e8)"><path style=" stroke:none;fill-rule:nonzero;fill:#5c6bc0;fill-opacity:1;" d="M 135.050781 160.53125 L 105.574219 115.207031 C 125.226562 112.433594 136.597656 103.703125 147.265625 83.1875 C 157.285156 63.921875 152.128906 43.730469 147.265625 34.121094 C 136.597656 17.070312 130.65625 10.546875 111.191406 4.320312 C 86.0625 -3.71875 68.660156 1.132812 51.957031 8.203125 C 36.863281 14.589844 17.425781 34.675781 12.089844 48.121094 C 9.195312 55.417969 5.210938 68.496094 5.210938 73.761719 L 5.210938 116.175781 C 11.949219 99.265625 29.402344 86.769531 38.480469 83.1875 C 38.480469 39.832031 76.472656 32.78125 95.46875 34.675781 C 102.675781 35.832031 117.085938 42.296875 117.085938 58.933594 C 117.085938 75.566406 102.675781 82.03125 95.46875 83.1875 L 65.148438 83.1875 C 24.949219 83.1875 5.492188 120.058594 5.492188 141.265625 L 5.210938 198.648438 C 27.390625 198.648438 38.761719 178.828125 38.761719 167.324219 C 38.667969 160.855469 38.648438 146.585938 39.320312 141.265625 C 39.996094 135.941406 40.164062 130.050781 48.164062 125.324219 C 57.570312 119.964844 69.09375 120.472656 71.746094 124.769531 C 82.414062 142.050781 105.941406 179.078125 114.699219 188.945312 C 123.457031 198.8125 135.847656 200.359375 140.949219 199.894531 C 158.578125 199.894531 166.449219 187.144531 168.179688 180.769531 C 152.234375 180.769531 139.449219 167.277344 135.050781 160.53125 Z M 135.050781 160.53125 "/></g><g transform="matrix(1,0,0,1,328,156)"><g clip-path="url(#2e067a8fa8)"><g style="fill:#5c6bc0;fill-opacity:1;"><g transform="translate(0.852004, 33.155935)"><path style="stroke:none" d="M 1.96875 0 L 1.96875 -27.5 L 17.671875 -27.5 L 17.671875 -23.5625 L 5.890625 -23.5625 L 5.890625 -15.71875 L 17.671875 -15.71875 L 17.671875 -11.78125 L 5.890625 -11.78125 L 5.890625 0 Z M 17.671875 -15.71875 L 17.671875 -23.5625 L 21.609375 -23.5625 L 21.609375 -15.71875 Z M 17.671875 -15.71875 "/></g></g><g style="fill:#5c6bc0;fill-opacity:1;"><g transform="translate(30.290743, 33.155935)"><path style="stroke:none" d="M 1.96875 0 L 1.96875 -27.5 L 17.671875 -27.5 L 17.671875 -23.5625 L 5.890625 -23.5625 L 5.890625 -15.71875 L 17.671875 -15.71875 L 17.671875 -11.78125 L 13.75 -11.78125 L 13.75 -7.859375 L 9.828125 -7.859375 L 9.828125 -11.78125 L 5.890625 -11.78125 L 5.890625 0 Z M 13.75 -3.921875 L 13.75 -7.859375 L 17.671875 -7.859375 L 17.671875 -3.921875 Z M 17.671875 0 L 17.671875 -3.921875 L 21.609375 -3.921875 L 21.609375 0 Z M 17.671875 -15.71875 L 17.671875 -23.5625 L 21.609375 -23.5625 L 21.609375 -15.71875 Z M 17.671875 -15.71875 "/></g></g><g style="fill:#5c6bc0;fill-opacity:1;"><g transform="translate(59.729483, 33.155935)"><path style="stroke:none" d="M 1.96875 0 L 1.96875 -27.5 L 5.890625 -27.5 L 5.890625 0 Z M 1.96875 0 "/></g></g><g style="fill:#5c6bc0;fill-opacity:1;"><g transform="translate(73.471156, 33.155935)"><path style="stroke:none" d="M 17.671875 0 L 17.671875 -11.78125 L 13.75 -11.78125 L 13.75 -15.71875 L 17.671875 -15.71875 L 17.671875 -27.5 L 21.609375 -27.5 L 21.609375 0 Z M 1.96875 0 L 1.96875 -27.5 L 5.890625 -27.5 L 5.890625 -23.5625 L 9.828125 -23.5625 L 9.828125 -19.640625 L 5.890625 -19.640625 L 5.890625 0 Z M 9.828125 -15.71875 L 9.828125 -19.640625 L 13.75 -19.640625 L 13.75 -15.71875 Z M 9.828125 -15.71875 "/></g></g><g style="fill:#5c6bc0;fill-opacity:1;"><g transform="translate(102.909896, 33.155935)"><path style="stroke:none" d="M 9.828125 0 L 9.828125 -23.5625 L 1.96875 -23.5625 L 1.96875 -27.5 L 21.609375 -27.5 L 21.609375 -23.5625 L 13.75 -23.5625 L 13.75 0 Z M 9.828125 0 "/></g></g><g style="fill:#5c6bc0;fill-opacity:1;"><g transform="translate(132.348635, 33.155935)"><path style="stroke:none" d="M 1.96875 0 L 1.96875 -27.5 L 5.890625 -27.5 L 5.890625 0 Z M 1.96875 0 "/></g></g><g style="fill:#5c6bc0;fill-opacity:1;"><g transform="translate(146.090309, 33.155935)"><path style="stroke:none" d="M 17.671875 0 L 17.671875 -11.78125 L 13.75 -11.78125 L 13.75 -15.71875 L 17.671875 -15.71875 L 17.671875 -27.5 L 21.609375 -27.5 L 21.609375 0 Z M 1.96875 0 L 1.96875 -27.5 L 5.890625 -27.5 L 5.890625 -23.5625 L 9.828125 -23.5625 L 9.828125 -19.640625 L 5.890625 -19.640625 L 5.890625 0 Z M 9.828125 -15.71875 L 9.828125 -19.640625 L 13.75 -19.640625 L 13.75 -15.71875 Z M 9.828125 -15.71875 "/></g></g><g style="fill:#5c6bc0;fill-opacity:1;"><g transform="translate(175.529048, 33.155935)"><path style="stroke:none" d="M 17.671875 -3.921875 L 17.671875 0 L 5.890625 0 L 5.890625 -3.921875 Z M 1.96875 -3.921875 L 1.96875 -23.5625 L 5.890625 -23.5625 L 5.890625 -3.921875 Z M 5.890625 -23.5625 L 5.890625 -27.5 L 17.671875 -27.5 L 17.671875 -23.5625 Z M 13.75 -11.78125 L 13.75 -15.71875 L 21.609375 -15.71875 L 21.609375 -3.921875 L 17.671875 -3.921875 L 17.671875 -11.78125 Z M 17.671875 -19.640625 L 17.671875 -23.5625 L 21.609375 -23.5625 L 21.609375 -19.640625 Z M 17.671875 -19.640625 "/></g></g><g style="fill:#5c6bc0;fill-opacity:1;"><g transform="translate(204.967788, 33.155935)"><path style="stroke:none" d=""/></g></g><g style="fill:#5c6bc0;fill-opacity:1;"><g transform="translate(220.6716, 33.155935)"><path style="stroke:none" d="M 13.75 -3.921875 L 13.75 0 L 5.890625 0 L 5.890625 -3.921875 Z M 1.96875 -3.921875 L 1.96875 -11.78125 L 5.890625 -11.78125 L 5.890625 -3.921875 Z M 1.96875 -15.71875 L 1.96875 -23.5625 L 5.890625 -23.5625 L 5.890625 -15.71875 Z M 5.890625 -11.78125 L 5.890625 -15.71875 L 13.75 -15.71875 L 13.75 -11.78125 Z M 5.890625 -23.5625 L 5.890625 -27.5 L 13.75 -27.5 L 13.75 -23.5625 Z M 13.75 -3.921875 L 13.75 -11.78125 L 21.609375 -11.78125 L 21.609375 -7.859375 L 17.671875 -7.859375 L 17.671875 -3.921875 Z M 13.75 -15.71875 L 13.75 -23.5625 L 17.671875 -23.5625 L 17.671875 -15.71875 Z M 17.671875 0 L 17.671875 -3.921875 L 21.609375 -3.921875 L 21.609375 0 Z M 21.609375 -11.78125 L 21.609375 -15.71875 L 25.53125 -15.71875 L 25.53125 -11.78125 Z M 21.609375 -11.78125 "/></g></g><g style="fill:#5c6bc0;fill-opacity:1;"><g transform="translate(254.034616, 33.155935)"><path style="stroke:none" d=""/></g></g><g style="fill:#5c6bc0;fill-opacity:1;"><g transform="translate(269.738428, 33.155935)"><path style="stroke:none" d="M 1.96875 0 L 1.96875 -27.5 L 17.671875 -27.5 L 17.671875 -23.5625 L 5.890625 -23.5625 L 5.890625 -15.71875 L 17.671875 -15.71875 L 17.671875 -11.78125 L 5.890625 -11.78125 L 5.890625 0 Z M 17.671875 -15.71875 L 17.671875 -23.5625 L 21.609375 -23.5625 L 21.609375 -15.71875 Z M 17.671875 -15.71875 "/></g></g><g style="fill:#5c6bc0;fill-opacity:1;"><g transform="translate(299.177167, 33.155935)"><path style="stroke:none" d="M 1.96875 0 L 1.96875 -27.5 L 21.609375 -27.5 L 21.609375 -23.5625 L 5.890625 -23.5625 L 5.890625 -15.71875 L 17.671875 -15.71875 L 17.671875 -11.78125 L 5.890625 -11.78125 L 5.890625 -3.921875 L 21.5625 -3.921875 L 21.5625 0 Z M 1.96875 0 "/></g></g><g style="fill:#5c6bc0;fill-opacity:1;"><g transform="translate(328.615907, 33.155935)"><path style="stroke:none" d="M 1.96875 0 L 1.96875 -27.5 L 17.671875 -27.5 L 17.671875 -23.5625 L 5.890625 -23.5625 L 5.890625 -15.71875 L 17.671875 -15.71875 L 17.671875 -11.78125 L 13.75 -11.78125 L 13.75 -7.859375 L 9.828125 -7.859375 L 9.828125 -11.78125 L 5.890625 -11.78125 L 5.890625 0 Z M 13.75 -3.921875 L 13.75 -7.859375 L 17.671875 -7.859375 L 17.671875 -3.921875 Z M 17.671875 0 L 17.671875 -3.921875 L 21.609375 -3.921875 L 21.609375 0 Z M 17.671875 -15.71875 L 17.671875 -23.5625 L 21.609375 -23.5625 L 21.609375 -15.71875 Z M 17.671875 -15.71875 "/></g></g><g style="fill:#5c6bc0;fill-opacity:1;"><g transform="translate(358.054646, 33.155935)"><path style="stroke:none" d="M 1.96875 -3.921875 L 1.96875 -23.5625 L 5.890625 -23.5625 L 5.890625 -3.921875 Z M 5.890625 0 L 5.890625 -3.921875 L 17.671875 -3.921875 L 17.671875 0 Z M 5.890625 -23.5625 L 5.890625 -27.5 L 17.671875 -27.5 L 17.671875 -23.5625 Z M 17.671875 -3.921875 L 17.671875 -7.859375 L 21.609375 -7.859375 L 21.609375 -3.921875 Z M 17.671875 -19.640625 L 17.671875 -23.5625 L 21.609375 -23.5625 L 21.609375 -19.640625 Z M 17.671875 -19.640625 "/></g></g><g style="fill:#5c6bc0;fill-opacity:1;"><g transform="translate(387.493385, 33.155935)"><path style="stroke:none" d="M 1.96875 0 L 1.96875 -27.5 L 21.609375 -27.5 L 21.609375 -23.5625 L 5.890625 -23.5625 L 5.890625 -15.71875 L 17.671875 -15.71875 L 17.671875 -11.78125 L 5.890625 -11.78125 L 5.890625 -3.921875 L 21.5625 -3.921875 L 21.5625 0 Z M 1.96875 0 "/></g></g><g style="fill:#5c6bc0;fill-opacity:1;"><g transform="translate(416.932125, 33.155935)"><path style="stroke:none" d="M 9.828125 0 L 9.828125 -23.5625 L 1.96875 -23.5625 L 1.96875 -27.5 L 21.609375 -27.5 L 21.609375 -23.5625 L 13.75 -23.5625 L 13.75 0 Z M 9.828125 0 "/></g></g><g style="fill:#5c6bc0;fill-opacity:1;"><g transform="translate(446.370864, 33.155935)"><path style="stroke:none" d="M 1.96875 0 L 1.96875 -23.5625 L 5.890625 -23.5625 L 5.890625 -11.78125 L 17.671875 -11.78125 L 17.671875 -23.5625 L 21.609375 -23.5625 L 21.609375 0 L 17.671875 0 L 17.671875 -7.859375 L 5.890625 -7.859375 L 5.890625 0 Z M 5.890625 -23.5625 L 5.890625 -27.5 L 17.671875 -27.5 L 17.671875 -23.5625 Z M 5.890625 -23.5625 "/></g></g><g style="fill:#5c6bc0;fill-opacity:1;"><g transform="translate(475.809604, 33.155935)"><path style="stroke:none" d="M 1.96875 0 L 1.96875 -27.5 L 5.890625 -27.5 L 5.890625 -15.71875 L 13.75 -15.71875 L 13.75 -11.78125 L 5.890625 -11.78125 L 5.890625 0 Z M 13.75 -7.859375 L 13.75 -11.78125 L 17.671875 -11.78125 L 17.671875 -7.859375 Z M 13.75 -15.71875 L 13.75 -19.640625 L 17.671875 -19.640625 L 17.671875 -15.71875 Z M 17.671875 0 L 17.671875 -7.859375 L 21.609375 -7.859375 L 21.609375 0 Z M 17.671875 -19.640625 L 17.671875 -27.5 L 21.609375 -27.5 L 21.609375 -19.640625 Z M 17.671875 -19.640625 "/></g></g><g style="fill:#5c6bc0;fill-opacity:1;"><g transform="translate(505.248343, 33.155935)"><path style="stroke:none" d="M 1.96875 0 L 1.96875 -23.5625 L 5.890625 -23.5625 L 5.890625 -11.78125 L 17.671875 -11.78125 L 17.671875 -23.5625 L 21.609375 -23.5625 L 21.609375 0 L 17.671875 0 L 17.671875 -7.859375 L 5.890625 -7.859375 L 5.890625 0 Z M 5.890625 -23.5625 L 5.890625 -27.5 L 17.671875 -27.5 L 17.671875 -23.5625 Z M 5.890625 -23.5625 "/></g></g><g style="fill:#5c6bc0;fill-opacity:1;"><g transform="translate(534.687083, 33.155935)"><path style="stroke:none" d="M 17.671875 0 L 17.671875 -11.78125 L 13.75 -11.78125 L 13.75 -15.71875 L 17.671875 -15.71875 L 17.671875 -27.5 L 21.609375 -27.5 L 21.609375 0 Z M 1.96875 0 L 1.96875 -27.5 L 5.890625 -27.5 L 5.890625 -23.5625 L 9.828125 -23.5625 L 9.828125 -19.640625 L 5.890625 -19.640625 L 5.890625 0 Z M 9.828125 -15.71875 L 9.828125 -19.640625 L 13.75 -19.640625 L 13.75 -15.71875 Z M 9.828125 -15.71875 "/></g></g><g clip-rule="nonzero" clip-path="url(#c7d18b32d8)"><g style="fill:#5c6bc0;fill-opacity:1;"><g transform="translate(564.153398, 33.155935)"><path style="stroke:none" d=""/></g></g></g></g></g><g transform="matrix(1,0,0,1,318,-0.00000000000000443)"><g clip-path="url(#5a11ac6135)"><g style="fill:#5c6bc0;fill-opacity:1;"><g transform="translate(2.425305, 129.404108)"><path style="stroke:none" d="M 22.375 1.484375 C 18.207031 1.484375 15.023438 0.390625 12.828125 -1.796875 C 10.640625 -3.992188 9.546875 -7.125 9.546875 -11.1875 L 9.546875 -69.578125 C 9.546875 -73.640625 10.613281 -76.738281 12.75 -78.875 C 14.882812 -81.007812 17.875 -82.078125 21.71875 -82.078125 C 25.664062 -82.078125 28.679688 -81.007812 30.765625 -78.875 C 32.847656 -76.738281 33.890625 -73.640625 33.890625 -69.578125 L 33.890625 -61.03125 L 32.234375 -61.03125 C 33.554688 -67.613281 36.460938 -72.710938 40.953125 -76.328125 C 45.453125 -79.941406 51.265625 -81.972656 58.390625 -82.421875 C 61.140625 -82.640625 63.253906 -81.953125 64.734375 -80.359375 C 66.210938 -78.765625 67.003906 -76.160156 67.109375 -72.546875 C 67.328125 -69.140625 66.640625 -66.445312 65.046875 -64.46875 C 63.460938 -62.5 60.804688 -61.296875 57.078125 -60.859375 L 53.296875 -60.53125 C 47.046875 -59.988281 42.410156 -58.179688 39.390625 -55.109375 C 36.378906 -52.035156 34.875 -47.59375 34.875 -41.78125 L 34.875 -11.1875 C 34.875 -7.125 33.800781 -3.992188 31.65625 -1.796875 C 29.519531 0.390625 26.425781 1.484375 22.375 1.484375 Z M 22.375 1.484375 "/></g></g><g style="fill:#5c6bc0;fill-opacity:1;"><g transform="translate(68.71894, 129.404108)"><path style="stroke:none" d="M 48.359375 1.8125 C 39.703125 1.8125 32.164062 0.113281 25.75 -3.28125 C 19.332031 -6.6875 14.367188 -11.566406 10.859375 -17.921875 C 7.347656 -24.285156 5.59375 -31.800781 5.59375 -40.46875 C 5.59375 -46.9375 6.578125 -52.75 8.546875 -57.90625 C 10.523438 -63.0625 13.40625 -67.472656 17.1875 -71.140625 C 20.96875 -74.816406 25.488281 -77.613281 30.75 -79.53125 C 36.019531 -81.457031 41.890625 -82.421875 48.359375 -82.421875 C 57.023438 -82.421875 64.566406 -80.71875 70.984375 -77.3125 C 77.398438 -73.914062 82.390625 -69.09375 85.953125 -62.84375 C 89.515625 -56.59375 91.296875 -49.132812 91.296875 -40.46875 C 91.296875 -33.882812 90.28125 -28.015625 88.25 -22.859375 C 86.226562 -17.710938 83.351562 -13.273438 79.625 -9.546875 C 75.894531 -5.816406 71.367188 -2.988281 66.046875 -1.0625 C 60.722656 0.851562 54.828125 1.8125 48.359375 1.8125 Z M 48.359375 -16.78125 C 51.984375 -16.78125 55.109375 -17.65625 57.734375 -19.40625 C 60.367188 -21.164062 62.453125 -23.769531 63.984375 -27.21875 C 65.523438 -30.675781 66.296875 -35.09375 66.296875 -40.46875 C 66.296875 -48.46875 64.648438 -54.359375 61.359375 -58.140625 C 58.066406 -61.929688 53.734375 -63.828125 48.359375 -63.828125 C 44.847656 -63.828125 41.75 -63.003906 39.0625 -61.359375 C 36.375 -59.710938 34.289062 -57.160156 32.8125 -53.703125 C 31.332031 -50.253906 30.59375 -45.84375 30.59375 -40.46875 C 30.59375 -32.457031 32.238281 -26.503906 35.53125 -22.609375 C 38.820312 -18.722656 43.097656 -16.78125 48.359375 -16.78125 Z M 48.359375 -16.78125 "/></g></g><g style="fill:#5c6bc0;fill-opacity:1;"><g transform="translate(163.635676, 129.404108)"><path style="stroke:none" d="M 43.75 1.484375 C 40.570312 1.484375 37.773438 0.632812 35.359375 -1.0625 C 32.953125 -2.769531 31.035156 -5.320312 29.609375 -8.71875 L 4.765625 -65.96875 C 3.566406 -68.8125 3.128906 -71.46875 3.453125 -73.9375 C 3.785156 -76.40625 4.960938 -78.378906 6.984375 -79.859375 C 9.015625 -81.335938 11.84375 -82.078125 15.46875 -82.078125 C 18.425781 -82.078125 20.835938 -81.390625 22.703125 -80.015625 C 24.566406 -78.648438 26.210938 -76.050781 27.640625 -72.21875 L 47.046875 -22.859375 L 41.78125 -22.859375 L 62.015625 -72.375 C 63.546875 -76.101562 65.242188 -78.648438 67.109375 -80.015625 C 68.972656 -81.390625 71.550781 -82.078125 74.84375 -82.078125 C 77.695312 -82.078125 79.972656 -81.335938 81.671875 -79.859375 C 83.367188 -78.378906 84.410156 -76.429688 84.796875 -74.015625 C 85.179688 -71.609375 84.71875 -68.976562 83.40625 -66.125 L 58.0625 -8.71875 C 56.644531 -5.207031 54.753906 -2.628906 52.390625 -0.984375 C 50.035156 0.660156 47.15625 1.484375 43.75 1.484375 Z M 43.75 1.484375 "/></g></g><g style="fill:#5c6bc0;fill-opacity:1;"><g transform="translate(251.478936, 129.404108)"><path style="stroke:none" d="M 22.046875 1.3125 C 17.984375 1.3125 14.882812 0.132812 12.75 -2.21875 C 10.613281 -4.570312 9.546875 -7.890625 9.546875 -12.171875 L 9.546875 -68.4375 C 9.546875 -72.820312 10.613281 -76.191406 12.75 -78.546875 C 14.882812 -80.898438 17.984375 -82.078125 22.046875 -82.078125 C 25.992188 -82.078125 29.035156 -80.898438 31.171875 -78.546875 C 33.304688 -76.191406 34.375 -72.820312 34.375 -68.4375 L 34.375 -12.171875 C 34.375 -7.890625 33.332031 -4.570312 31.25 -2.21875 C 29.164062 0.132812 26.097656 1.3125 22.046875 1.3125 Z M 22.046875 -95.578125 C 17.441406 -95.578125 13.90625 -96.644531 11.4375 -98.78125 C 8.96875 -100.914062 7.734375 -103.957031 7.734375 -107.90625 C 7.734375 -111.96875 8.96875 -115.066406 11.4375 -117.203125 C 13.90625 -119.335938 17.441406 -120.40625 22.046875 -120.40625 C 26.648438 -120.40625 30.15625 -119.335938 32.5625 -117.203125 C 34.976562 -115.066406 36.1875 -111.96875 36.1875 -107.90625 C 36.1875 -103.957031 34.976562 -100.914062 32.5625 -98.78125 C 30.15625 -96.644531 26.648438 -95.578125 22.046875 -95.578125 Z M 22.046875 -95.578125 "/></g></g><g style="fill:#5c6bc0;fill-opacity:1;"><g transform="translate(295.565071, 129.404108)"><path style="stroke:none" d="M 36.84375 1.8125 C 30.925781 1.8125 25.609375 0.660156 20.890625 -1.640625 C 16.171875 -3.941406 12.492188 -7.066406 9.859375 -11.015625 C 7.234375 -14.960938 5.921875 -19.40625 5.921875 -24.34375 C 5.921875 -30.269531 7.457031 -34.957031 10.53125 -38.40625 C 13.601562 -41.863281 18.59375 -44.332031 25.5 -45.8125 C 32.40625 -47.289062 41.5625 -48.03125 52.96875 -48.03125 L 61.6875 -48.03125 L 61.6875 -35.203125 L 53.140625 -35.203125 C 47.546875 -35.203125 43.019531 -34.898438 39.5625 -34.296875 C 36.101562 -33.691406 33.632812 -32.675781 32.15625 -31.25 C 30.675781 -29.820312 29.9375 -27.847656 29.9375 -25.328125 C 29.9375 -22.265625 31.003906 -19.742188 33.140625 -17.765625 C 35.285156 -15.796875 38.382812 -14.8125 42.4375 -14.8125 C 45.625 -14.8125 48.445312 -15.550781 50.90625 -17.03125 C 53.375 -18.507812 55.320312 -20.535156 56.75 -23.109375 C 58.175781 -25.691406 58.890625 -28.625 58.890625 -31.90625 L 58.890625 -50.828125 C 58.890625 -55.648438 57.789062 -59.078125 55.59375 -61.109375 C 53.40625 -63.140625 49.679688 -64.15625 44.421875 -64.15625 C 41.453125 -64.15625 38.238281 -63.796875 34.78125 -63.078125 C 31.332031 -62.367188 27.523438 -61.191406 23.359375 -59.546875 C 20.941406 -58.453125 18.800781 -58.207031 16.9375 -58.8125 C 15.070312 -59.414062 13.644531 -60.507812 12.65625 -62.09375 C 11.675781 -63.6875 11.1875 -65.441406 11.1875 -67.359375 C 11.1875 -69.273438 11.734375 -71.140625 12.828125 -72.953125 C 13.921875 -74.765625 15.734375 -76.109375 18.265625 -76.984375 C 23.410156 -79.066406 28.257812 -80.492188 32.8125 -81.265625 C 37.363281 -82.035156 41.5625 -82.421875 45.40625 -82.421875 C 53.84375 -82.421875 60.773438 -81.1875 66.203125 -78.71875 C 71.640625 -76.25 75.726562 -72.460938 78.46875 -67.359375 C 81.207031 -62.265625 82.578125 -55.710938 82.578125 -47.703125 L 82.578125 -11.1875 C 82.578125 -7.125 81.585938 -3.992188 79.609375 -1.796875 C 77.640625 0.390625 74.789062 1.484375 71.0625 1.484375 C 67.332031 1.484375 64.453125 0.390625 62.421875 -1.796875 C 60.398438 -3.992188 59.390625 -7.125 59.390625 -11.1875 L 59.390625 -17.265625 L 60.53125 -16.28125 C 59.875 -12.550781 58.476562 -9.34375 56.34375 -6.65625 C 54.207031 -3.96875 51.492188 -1.882812 48.203125 -0.40625 C 44.910156 1.070312 41.125 1.8125 36.84375 1.8125 Z M 36.84375 1.8125 "/></g></g><g style="fill:#5c6bc0;fill-opacity:1;"><g transform="translate(387.191848, 129.404108)"><path style="stroke:none" d="M 22.046875 1.484375 C 17.984375 1.484375 14.882812 0.390625 12.75 -1.796875 C 10.613281 -3.992188 9.546875 -7.125 9.546875 -11.1875 L 9.546875 -69.578125 C 9.546875 -73.640625 10.613281 -76.738281 12.75 -78.875 C 14.882812 -81.007812 17.875 -82.078125 21.71875 -82.078125 C 25.664062 -82.078125 28.679688 -81.007812 30.765625 -78.875 C 32.847656 -76.738281 33.890625 -73.640625 33.890625 -69.578125 L 33.890625 -60.203125 L 32.078125 -65.640625 C 34.597656 -71.015625 38.351562 -75.15625 43.34375 -78.0625 C 48.332031 -80.96875 54.007812 -82.421875 60.375 -82.421875 C 66.84375 -82.421875 72.160156 -81.1875 76.328125 -78.71875 C 80.492188 -76.25 83.617188 -72.519531 85.703125 -67.53125 C 87.785156 -62.539062 88.828125 -56.207031 88.828125 -48.53125 L 88.828125 -11.1875 C 88.828125 -7.125 87.757812 -3.992188 85.625 -1.796875 C 83.488281 0.390625 80.390625 1.484375 76.328125 1.484375 C 72.378906 1.484375 69.332031 0.390625 67.1875 -1.796875 C 65.050781 -3.992188 63.984375 -7.125 63.984375 -11.1875 L 63.984375 -47.375 C 63.984375 -52.96875 62.96875 -57 60.9375 -59.46875 C 58.914062 -61.9375 55.820312 -63.171875 51.65625 -63.171875 C 46.382812 -63.171875 42.1875 -61.523438 39.0625 -58.234375 C 35.9375 -54.941406 34.375 -50.554688 34.375 -45.078125 L 34.375 -11.1875 C 34.375 -2.738281 30.265625 1.484375 22.046875 1.484375 Z M 22.046875 1.484375 "/></g></g><g style="fill:#5c6bc0;fill-opacity:1;"><g transform="translate(485.069625, 129.404108)"><path style="stroke:none" d="M 36.84375 1.8125 C 30.925781 1.8125 25.609375 0.660156 20.890625 -1.640625 C 16.171875 -3.941406 12.492188 -7.066406 9.859375 -11.015625 C 7.234375 -14.960938 5.921875 -19.40625 5.921875 -24.34375 C 5.921875 -30.269531 7.457031 -34.957031 10.53125 -38.40625 C 13.601562 -41.863281 18.59375 -44.332031 25.5 -45.8125 C 32.40625 -47.289062 41.5625 -48.03125 52.96875 -48.03125 L 61.6875 -48.03125 L 61.6875 -35.203125 L 53.140625 -35.203125 C 47.546875 -35.203125 43.019531 -34.898438 39.5625 -34.296875 C 36.101562 -33.691406 33.632812 -32.675781 32.15625 -31.25 C 30.675781 -29.820312 29.9375 -27.847656 29.9375 -25.328125 C 29.9375 -22.265625 31.003906 -19.742188 33.140625 -17.765625 C 35.285156 -15.796875 38.382812 -14.8125 42.4375 -14.8125 C 45.625 -14.8125 48.445312 -15.550781 50.90625 -17.03125 C 53.375 -18.507812 55.320312 -20.535156 56.75 -23.109375 C 58.175781 -25.691406 58.890625 -28.625 58.890625 -31.90625 L 58.890625 -50.828125 C 58.890625 -55.648438 57.789062 -59.078125 55.59375 -61.109375 C 53.40625 -63.140625 49.679688 -64.15625 44.421875 -64.15625 C 41.453125 -64.15625 38.238281 -63.796875 34.78125 -63.078125 C 31.332031 -62.367188 27.523438 -61.191406 23.359375 -59.546875 C 20.941406 -58.453125 18.800781 -58.207031 16.9375 -58.8125 C 15.070312 -59.414062 13.644531 -60.507812 12.65625 -62.09375 C 11.675781 -63.6875 11.1875 -65.441406 11.1875 -67.359375 C 11.1875 -69.273438 11.734375 -71.140625 12.828125 -72.953125 C 13.921875 -74.765625 15.734375 -76.109375 18.265625 -76.984375 C 23.410156 -79.066406 28.257812 -80.492188 32.8125 -81.265625 C 37.363281 -82.035156 41.5625 -82.421875 45.40625 -82.421875 C 53.84375 -82.421875 60.773438 -81.1875 66.203125 -78.71875 C 71.640625 -76.25 75.726562 -72.460938 78.46875 -67.359375 C 81.207031 -62.265625 82.578125 -55.710938 82.578125 -47.703125 L 82.578125 -11.1875 C 82.578125 -7.125 81.585938 -3.992188 79.609375 -1.796875 C 77.640625 0.390625 74.789062 1.484375 71.0625 1.484375 C 67.332031 1.484375 64.453125 0.390625 62.421875 -1.796875 C 60.398438 -3.992188 59.390625 -7.125 59.390625 -11.1875 L 59.390625 -17.265625 L 60.53125 -16.28125 C 59.875 -12.550781 58.476562 -9.34375 56.34375 -6.65625 C 54.207031 -3.96875 51.492188 -1.882812 48.203125 -0.40625 C 44.910156 1.070312 41.125 1.8125 36.84375 1.8125 Z M 36.84375 1.8125 "/></g></g><g style="fill:#5c6bc0;fill-opacity:1;"><g transform="translate(576.707887, 129.404108)"><path style="stroke:none" d=""/></g></g></g></g><g clip-rule="nonzero" clip-path="url(#8cc39f97e0)"><path style="fill:none;stroke-width:4;stroke-linecap:butt;stroke-linejoin:miter;stroke:#5c6bc0;stroke-opacity:1;stroke-miterlimit:4;" d="M 0.00140276 2.000164 L 268.000013 2.000163 " transform="matrix(0.00000000130252,-0.746287,0.746287,0.00000000130252,292.155741,200.004953)"/></g></g></svg>
