<svg xmlns="http://www.w3.org/2000/svg" xmlns:xlink="http://www.w3.org/1999/xlink" width="1080" zoomAndPan="magnify" viewBox="0 0 810 201.000001" height="268" preserveAspectRatio="xMidYMid meet" version="1.2"><defs><clipPath id="296f30d74f"><path d="M 121 1 L 263.894531 1 L 263.894531 174 L 121 174 Z M 121 1 "/></clipPath><clipPath id="123cc7cc33"><path d="M 2.003906 0.0742188 L 165 0.0742188 L 165 199.867188 L 2.003906 199.867188 Z M 2.003906 0.0742188 "/></clipPath></defs><g id="0113f88ab0"><g clip-rule="nonzero" clip-path="url(#296f30d74f)"><path style=" stroke:none;fill-rule:nonzero;fill:#5c6bc0;fill-opacity:1;" d="M 166.046875 128.863281 L 166.046875 173.167969 C 144.285156 173.167969 133.238281 153.507812 133.238281 144.507812 L 133.238281 108.097656 C 145.015625 99.347656 152.351562 82.761719 154.546875 75.5625 C 157.269531 74.011719 161.289062 74.175781 162.960938 74.453125 C 168.90625 98.820312 187.402344 104.820312 195.910156 104.773438 C 207.59375 104.449219 230.960938 97.160156 230.960938 70.578125 C 230.960938 43.996094 208.808594 35.226562 197.730469 34.164062 L 151.746094 34.164062 C 145.015625 18.382812 129.582031 6.519531 121.039062 2.046875 C 145.949219 2.046875 196.535156 1.785156 199.554688 2.046875 C 202.78125 2.320312 208.949219 2.875 217.640625 5.644531 C 236.007812 11.496094 247.4375 25.164062 252.132812 32.226562 C 255.871094 37.117188 263.347656 51.636719 263.347656 70.578125 C 263.347656 89.515625 254.5625 104.957031 250.167969 110.3125 C 246.335938 116.390625 233.511719 129.910156 212.875 135.371094 C 192.238281 140.832031 173.054688 133.308594 166.046875 128.863281 Z M 166.046875 128.863281 "/></g><g clip-rule="nonzero" clip-path="url(#123cc7cc33)"><path style=" stroke:none;fill-rule:nonzero;fill:#5c6bc0;fill-opacity:1;" d="M 131.695312 160.429688 L 102.25 115.15625 C 121.878906 112.386719 133.238281 103.664062 143.894531 83.175781 C 153.902344 63.929688 148.753906 43.765625 143.894531 34.164062 C 133.238281 17.136719 127.300781 10.621094 107.859375 4.398438 C 82.761719 -3.632812 65.378906 1.214844 48.695312 8.273438 C 33.617188 14.65625 14.203125 34.71875 8.875 48.148438 C 5.984375 55.4375 2.003906 68.5 2.003906 73.761719 L 2.003906 116.125 C 8.734375 99.234375 26.167969 86.753906 35.234375 83.175781 C 35.234375 39.867188 73.183594 32.828125 92.15625 34.71875 C 99.355469 35.871094 113.75 42.332031 113.75 58.945312 C 113.75 75.5625 99.355469 82.023438 92.15625 83.175781 L 61.871094 83.175781 C 21.71875 83.175781 2.285156 120.003906 2.285156 141.183594 L 2.003906 198.503906 C 24.15625 198.503906 35.515625 178.703125 35.515625 167.214844 C 35.421875 160.753906 35.402344 146.5 36.074219 141.183594 C 36.746094 135.867188 36.917969 129.984375 44.90625 125.265625 C 54.300781 119.910156 65.8125 120.417969 68.460938 124.710938 C 79.117188 141.96875 102.617188 178.953125 111.363281 188.8125 C 120.113281 198.667969 132.488281 200.210938 137.582031 199.75 C 155.195312 199.75 163.054688 187.011719 164.785156 180.644531 C 148.855469 180.644531 136.089844 167.167969 131.695312 160.429688 Z M 131.695312 160.429688 "/></g><g style="fill:#5c6bc0;fill-opacity:1;"><g transform="translate(335.776984, 166.832878)"><path style="stroke:none" d="M 1.609375 0 L 1.609375 -22.484375 L 14.453125 -22.484375 L 14.453125 -19.28125 L 4.8125 -19.28125 L 4.8125 -12.84375 L 14.453125 -12.84375 L 14.453125 -9.640625 L 4.8125 -9.640625 L 4.8125 0 Z M 14.453125 -12.84375 L 14.453125 -19.28125 L 17.671875 -19.28125 L 17.671875 -12.84375 Z M 14.453125 -12.84375 "/></g></g><g style="fill:#5c6bc0;fill-opacity:1;"><g transform="translate(359.862139, 166.832878)"><path style="stroke:none" d="M 1.609375 0 L 1.609375 -22.484375 L 14.453125 -22.484375 L 14.453125 -19.28125 L 4.8125 -19.28125 L 4.8125 -12.84375 L 14.453125 -12.84375 L 14.453125 -9.640625 L 11.25 -9.640625 L 11.25 -6.421875 L 8.03125 -6.421875 L 8.03125 -9.640625 L 4.8125 -9.640625 L 4.8125 0 Z M 11.25 -3.21875 L 11.25 -6.421875 L 14.453125 -6.421875 L 14.453125 -3.21875 Z M 14.453125 0 L 14.453125 -3.21875 L 17.671875 -3.21875 L 17.671875 0 Z M 14.453125 -12.84375 L 14.453125 -19.28125 L 17.671875 -19.28125 L 17.671875 -12.84375 Z M 14.453125 -12.84375 "/></g></g><g style="fill:#5c6bc0;fill-opacity:1;"><g transform="translate(383.947295, 166.832878)"><path style="stroke:none" d="M 1.609375 0 L 1.609375 -22.484375 L 4.8125 -22.484375 L 4.8125 0 Z M 1.609375 0 "/></g></g><g style="fill:#5c6bc0;fill-opacity:1;"><g transform="translate(395.189975, 166.832878)"><path style="stroke:none" d="M 14.453125 0 L 14.453125 -9.640625 L 11.25 -9.640625 L 11.25 -12.84375 L 14.453125 -12.84375 L 14.453125 -22.484375 L 17.671875 -22.484375 L 17.671875 0 Z M 1.609375 0 L 1.609375 -22.484375 L 4.8125 -22.484375 L 4.8125 -19.28125 L 8.03125 -19.28125 L 8.03125 -16.0625 L 4.8125 -16.0625 L 4.8125 0 Z M 8.03125 -12.84375 L 8.03125 -16.0625 L 11.25 -16.0625 L 11.25 -12.84375 Z M 8.03125 -12.84375 "/></g></g><g style="fill:#5c6bc0;fill-opacity:1;"><g transform="translate(419.27513, 166.832878)"><path style="stroke:none" d="M 8.03125 0 L 8.03125 -19.28125 L 1.609375 -19.28125 L 1.609375 -22.484375 L 17.671875 -22.484375 L 17.671875 -19.28125 L 11.25 -19.28125 L 11.25 0 Z M 8.03125 0 "/></g></g><g style="fill:#5c6bc0;fill-opacity:1;"><g transform="translate(443.360285, 166.832878)"><path style="stroke:none" d="M 1.609375 0 L 1.609375 -22.484375 L 4.8125 -22.484375 L 4.8125 0 Z M 1.609375 0 "/></g></g><g style="fill:#5c6bc0;fill-opacity:1;"><g transform="translate(454.602965, 166.832878)"><path style="stroke:none" d="M 14.453125 0 L 14.453125 -9.640625 L 11.25 -9.640625 L 11.25 -12.84375 L 14.453125 -12.84375 L 14.453125 -22.484375 L 17.671875 -22.484375 L 17.671875 0 Z M 1.609375 0 L 1.609375 -22.484375 L 4.8125 -22.484375 L 4.8125 -19.28125 L 8.03125 -19.28125 L 8.03125 -16.0625 L 4.8125 -16.0625 L 4.8125 0 Z M 8.03125 -12.84375 L 8.03125 -16.0625 L 11.25 -16.0625 L 11.25 -12.84375 Z M 8.03125 -12.84375 "/></g></g><g style="fill:#5c6bc0;fill-opacity:1;"><g transform="translate(478.68812, 166.832878)"><path style="stroke:none" d="M 14.453125 -3.21875 L 14.453125 0 L 4.8125 0 L 4.8125 -3.21875 Z M 1.609375 -3.21875 L 1.609375 -19.28125 L 4.8125 -19.28125 L 4.8125 -3.21875 Z M 4.8125 -19.28125 L 4.8125 -22.484375 L 14.453125 -22.484375 L 14.453125 -19.28125 Z M 11.25 -9.640625 L 11.25 -12.84375 L 17.671875 -12.84375 L 17.671875 -3.21875 L 14.453125 -3.21875 L 14.453125 -9.640625 Z M 14.453125 -16.0625 L 14.453125 -19.28125 L 17.671875 -19.28125 L 17.671875 -16.0625 Z M 14.453125 -16.0625 "/></g></g><g style="fill:#5c6bc0;fill-opacity:1;"><g transform="translate(502.773275, 166.832878)"><path style="stroke:none" d=""/></g></g><g style="fill:#5c6bc0;fill-opacity:1;"><g transform="translate(515.621269, 166.832878)"><path style="stroke:none" d="M 11.25 -3.21875 L 11.25 0 L 4.8125 0 L 4.8125 -3.21875 Z M 1.609375 -3.21875 L 1.609375 -9.640625 L 4.8125 -9.640625 L 4.8125 -3.21875 Z M 1.609375 -12.84375 L 1.609375 -19.28125 L 4.8125 -19.28125 L 4.8125 -12.84375 Z M 4.8125 -9.640625 L 4.8125 -12.84375 L 11.25 -12.84375 L 11.25 -9.640625 Z M 4.8125 -19.28125 L 4.8125 -22.484375 L 11.25 -22.484375 L 11.25 -19.28125 Z M 11.25 -3.21875 L 11.25 -9.640625 L 17.671875 -9.640625 L 17.671875 -6.421875 L 14.453125 -6.421875 L 14.453125 -3.21875 Z M 11.25 -12.84375 L 11.25 -19.28125 L 14.453125 -19.28125 L 14.453125 -12.84375 Z M 14.453125 0 L 14.453125 -3.21875 L 17.671875 -3.21875 L 17.671875 0 Z M 17.671875 -9.640625 L 17.671875 -12.84375 L 20.875 -12.84375 L 20.875 -9.640625 Z M 17.671875 -9.640625 "/></g></g><g style="fill:#5c6bc0;fill-opacity:1;"><g transform="translate(542.917051, 166.832878)"><path style="stroke:none" d=""/></g></g><g style="fill:#5c6bc0;fill-opacity:1;"><g transform="translate(555.765045, 166.832878)"><path style="stroke:none" d="M 1.609375 0 L 1.609375 -22.484375 L 14.453125 -22.484375 L 14.453125 -19.28125 L 4.8125 -19.28125 L 4.8125 -12.84375 L 14.453125 -12.84375 L 14.453125 -9.640625 L 4.8125 -9.640625 L 4.8125 0 Z M 14.453125 -12.84375 L 14.453125 -19.28125 L 17.671875 -19.28125 L 17.671875 -12.84375 Z M 14.453125 -12.84375 "/></g></g><g style="fill:#5c6bc0;fill-opacity:1;"><g transform="translate(579.8502, 166.832878)"><path style="stroke:none" d="M 1.609375 0 L 1.609375 -22.484375 L 17.671875 -22.484375 L 17.671875 -19.28125 L 4.8125 -19.28125 L 4.8125 -12.84375 L 14.453125 -12.84375 L 14.453125 -9.640625 L 4.8125 -9.640625 L 4.8125 -3.21875 L 17.640625 -3.21875 L 17.640625 0 Z M 1.609375 0 "/></g></g><g style="fill:#5c6bc0;fill-opacity:1;"><g transform="translate(603.935355, 166.832878)"><path style="stroke:none" d="M 1.609375 0 L 1.609375 -22.484375 L 14.453125 -22.484375 L 14.453125 -19.28125 L 4.8125 -19.28125 L 4.8125 -12.84375 L 14.453125 -12.84375 L 14.453125 -9.640625 L 11.25 -9.640625 L 11.25 -6.421875 L 8.03125 -6.421875 L 8.03125 -9.640625 L 4.8125 -9.640625 L 4.8125 0 Z M 11.25 -3.21875 L 11.25 -6.421875 L 14.453125 -6.421875 L 14.453125 -3.21875 Z M 14.453125 0 L 14.453125 -3.21875 L 17.671875 -3.21875 L 17.671875 0 Z M 14.453125 -12.84375 L 14.453125 -19.28125 L 17.671875 -19.28125 L 17.671875 -12.84375 Z M 14.453125 -12.84375 "/></g></g><g style="fill:#5c6bc0;fill-opacity:1;"><g transform="translate(628.02051, 166.832878)"><path style="stroke:none" d="M 1.609375 -3.21875 L 1.609375 -19.28125 L 4.8125 -19.28125 L 4.8125 -3.21875 Z M 4.8125 0 L 4.8125 -3.21875 L 14.453125 -3.21875 L 14.453125 0 Z M 4.8125 -19.28125 L 4.8125 -22.484375 L 14.453125 -22.484375 L 14.453125 -19.28125 Z M 14.453125 -3.21875 L 14.453125 -6.421875 L 17.671875 -6.421875 L 17.671875 -3.21875 Z M 14.453125 -16.0625 L 14.453125 -19.28125 L 17.671875 -19.28125 L 17.671875 -16.0625 Z M 14.453125 -16.0625 "/></g></g><g style="fill:#5c6bc0;fill-opacity:1;"><g transform="translate(652.105665, 166.832878)"><path style="stroke:none" d="M 1.609375 0 L 1.609375 -22.484375 L 17.671875 -22.484375 L 17.671875 -19.28125 L 4.8125 -19.28125 L 4.8125 -12.84375 L 14.453125 -12.84375 L 14.453125 -9.640625 L 4.8125 -9.640625 L 4.8125 -3.21875 L 17.640625 -3.21875 L 17.640625 0 Z M 1.609375 0 "/></g></g><g style="fill:#5c6bc0;fill-opacity:1;"><g transform="translate(676.19082, 166.832878)"><path style="stroke:none" d="M 8.03125 0 L 8.03125 -19.28125 L 1.609375 -19.28125 L 1.609375 -22.484375 L 17.671875 -22.484375 L 17.671875 -19.28125 L 11.25 -19.28125 L 11.25 0 Z M 8.03125 0 "/></g></g><g style="fill:#5c6bc0;fill-opacity:1;"><g transform="translate(700.275975, 166.832878)"><path style="stroke:none" d="M 1.609375 0 L 1.609375 -19.28125 L 4.8125 -19.28125 L 4.8125 -9.640625 L 14.453125 -9.640625 L 14.453125 -19.28125 L 17.671875 -19.28125 L 17.671875 0 L 14.453125 0 L 14.453125 -6.421875 L 4.8125 -6.421875 L 4.8125 0 Z M 4.8125 -19.28125 L 4.8125 -22.484375 L 14.453125 -22.484375 L 14.453125 -19.28125 Z M 4.8125 -19.28125 "/></g></g><g style="fill:#5c6bc0;fill-opacity:1;"><g transform="translate(724.361131, 166.832878)"><path style="stroke:none" d="M 1.609375 0 L 1.609375 -22.484375 L 4.8125 -22.484375 L 4.8125 -12.84375 L 11.25 -12.84375 L 11.25 -9.640625 L 4.8125 -9.640625 L 4.8125 0 Z M 11.25 -6.421875 L 11.25 -9.640625 L 14.453125 -9.640625 L 14.453125 -6.421875 Z M 11.25 -12.84375 L 11.25 -16.0625 L 14.453125 -16.0625 L 14.453125 -12.84375 Z M 14.453125 0 L 14.453125 -6.421875 L 17.671875 -6.421875 L 17.671875 0 Z M 14.453125 -16.0625 L 14.453125 -22.484375 L 17.671875 -22.484375 L 17.671875 -16.0625 Z M 14.453125 -16.0625 "/></g></g><g style="fill:#5c6bc0;fill-opacity:1;"><g transform="translate(748.446286, 166.832878)"><path style="stroke:none" d="M 1.609375 0 L 1.609375 -19.28125 L 4.8125 -19.28125 L 4.8125 -9.640625 L 14.453125 -9.640625 L 14.453125 -19.28125 L 17.671875 -19.28125 L 17.671875 0 L 14.453125 0 L 14.453125 -6.421875 L 4.8125 -6.421875 L 4.8125 0 Z M 4.8125 -19.28125 L 4.8125 -22.484375 L 14.453125 -22.484375 L 14.453125 -19.28125 Z M 4.8125 -19.28125 "/></g></g><g style="fill:#5c6bc0;fill-opacity:1;"><g transform="translate(772.531441, 166.832878)"><path style="stroke:none" d="M 14.453125 0 L 14.453125 -9.640625 L 11.25 -9.640625 L 11.25 -12.84375 L 14.453125 -12.84375 L 14.453125 -22.484375 L 17.671875 -22.484375 L 17.671875 0 Z M 1.609375 0 L 1.609375 -22.484375 L 4.8125 -22.484375 L 4.8125 -19.28125 L 8.03125 -19.28125 L 8.03125 -16.0625 L 4.8125 -16.0625 L 4.8125 0 Z M 8.03125 -12.84375 L 8.03125 -16.0625 L 11.25 -16.0625 L 11.25 -12.84375 Z M 8.03125 -12.84375 "/></g></g><g style="fill:#5c6bc0;fill-opacity:1;"><g transform="translate(796.639157, 166.832878)"><path style="stroke:none" d=""/></g></g><g style="fill:#5c6bc0;fill-opacity:1;"><g transform="translate(328.958454, 119.62952)"><path style="stroke:none" d="M 18.5625 1.125 C 15.40625 1.125 12.992188 0.253906 11.328125 -1.484375 C 9.671875 -3.234375 8.84375 -5.6875 8.84375 -8.84375 L 8.84375 -78 C 8.84375 -81.238281 9.691406 -83.6875 11.390625 -85.34375 C 13.097656 -87.007812 15.53125 -87.84375 18.6875 -87.84375 L 48.96875 -87.84375 C 58.769531 -87.84375 66.328125 -85.472656 71.640625 -80.734375 C 76.953125 -76.003906 79.609375 -69.398438 79.609375 -60.921875 C 79.609375 -55.441406 78.40625 -50.707031 76 -46.71875 C 73.59375 -42.726562 70.125 -39.65625 65.59375 -37.5 C 61.070312 -35.34375 55.53125 -34.265625 48.96875 -34.265625 L 49.96875 -36.375 L 55.078125 -36.375 C 58.554688 -36.375 61.601562 -35.519531 64.21875 -33.8125 C 66.84375 -32.113281 69.109375 -29.523438 71.015625 -26.046875 L 78.75 -11.71875 C 79.90625 -9.632812 80.441406 -7.59375 80.359375 -5.59375 C 80.273438 -3.601562 79.523438 -1.984375 78.109375 -0.734375 C 76.703125 0.503906 74.628906 1.125 71.890625 1.125 C 69.148438 1.125 66.925781 0.539062 65.21875 -0.625 C 63.519531 -1.789062 62.003906 -3.578125 60.671875 -5.984375 L 48.71875 -28.03125 C 47.46875 -30.351562 45.945312 -31.929688 44.15625 -32.765625 C 42.375 -33.597656 40.195312 -34.015625 37.625 -34.015625 L 28.15625 -34.015625 L 28.15625 -8.84375 C 28.15625 -5.6875 27.34375 -3.234375 25.71875 -1.484375 C 24.101562 0.253906 21.71875 1.125 18.5625 1.125 Z M 28.15625 -47.96875 L 45.484375 -47.96875 C 50.628906 -47.96875 54.507812 -49.003906 57.125 -51.078125 C 59.738281 -53.160156 61.046875 -56.273438 61.046875 -60.421875 C 61.046875 -64.492188 59.738281 -67.566406 57.125 -69.640625 C 54.507812 -71.722656 50.628906 -72.765625 45.484375 -72.765625 L 28.15625 -72.765625 Z M 28.15625 -47.96875 "/></g></g><g style="fill:#5c6bc0;fill-opacity:1;"><g transform="translate(413.927462, 119.62952)"><path style="stroke:none" d="M 36.625 1.375 C 30.0625 1.375 24.347656 0.0859375 19.484375 -2.484375 C 14.628906 -5.066406 10.875 -8.765625 8.21875 -13.578125 C 5.5625 -18.398438 4.234375 -24.09375 4.234375 -30.65625 C 4.234375 -35.550781 4.976562 -39.953125 6.46875 -43.859375 C 7.96875 -47.765625 10.148438 -51.109375 13.015625 -53.890625 C 15.878906 -56.671875 19.304688 -58.785156 23.296875 -60.234375 C 27.285156 -61.691406 31.726562 -62.421875 36.625 -62.421875 C 43.1875 -62.421875 48.894531 -61.132812 53.75 -58.5625 C 58.613281 -55.988281 62.394531 -52.332031 65.09375 -47.59375 C 67.800781 -42.863281 69.15625 -37.21875 69.15625 -30.65625 C 69.15625 -25.664062 68.382812 -21.21875 66.84375 -17.3125 C 65.3125 -13.414062 63.128906 -10.050781 60.296875 -7.21875 C 57.472656 -4.394531 54.046875 -2.253906 50.015625 -0.796875 C 45.992188 0.648438 41.53125 1.375 36.625 1.375 Z M 36.625 -12.703125 C 39.363281 -12.703125 41.726562 -13.367188 43.71875 -14.703125 C 45.71875 -16.035156 47.300781 -18.007812 48.46875 -20.625 C 49.632812 -23.238281 50.21875 -26.582031 50.21875 -30.65625 C 50.21875 -36.71875 48.96875 -41.179688 46.46875 -44.046875 C 43.976562 -46.910156 40.695312 -48.34375 36.625 -48.34375 C 33.96875 -48.34375 31.617188 -47.71875 29.578125 -46.46875 C 27.546875 -45.226562 25.96875 -43.296875 24.84375 -40.671875 C 23.726562 -38.054688 23.171875 -34.71875 23.171875 -30.65625 C 23.171875 -24.59375 24.414062 -20.082031 26.90625 -17.125 C 29.40625 -14.175781 32.644531 -12.703125 36.625 -12.703125 Z M 36.625 -12.703125 "/></g></g><g style="fill:#5c6bc0;fill-opacity:1;"><g transform="translate(485.814732, 119.62952)"><path style="stroke:none" d="M 33.140625 1.125 C 30.734375 1.125 28.613281 0.484375 26.78125 -0.796875 C 24.957031 -2.085938 23.503906 -4.023438 22.421875 -6.609375 L 3.609375 -49.96875 C 2.703125 -52.125 2.367188 -54.132812 2.609375 -56 C 2.859375 -57.875 3.75 -59.367188 5.28125 -60.484375 C 6.820312 -61.609375 8.96875 -62.171875 11.71875 -62.171875 C 13.957031 -62.171875 15.78125 -61.648438 17.1875 -60.609375 C 18.601562 -59.578125 19.851562 -57.609375 20.9375 -54.703125 L 35.640625 -17.3125 L 31.640625 -17.3125 L 46.96875 -54.828125 C 48.132812 -57.648438 49.421875 -59.578125 50.828125 -60.609375 C 52.242188 -61.648438 54.195312 -62.171875 56.6875 -62.171875 C 58.84375 -62.171875 60.566406 -61.609375 61.859375 -60.484375 C 63.148438 -59.367188 63.941406 -57.894531 64.234375 -56.0625 C 64.523438 -54.238281 64.171875 -52.25 63.171875 -50.09375 L 43.984375 -6.609375 C 42.898438 -3.941406 41.460938 -1.984375 39.671875 -0.734375 C 37.890625 0.503906 35.710938 1.125 33.140625 1.125 Z M 33.140625 1.125 "/></g></g><g style="fill:#5c6bc0;fill-opacity:1;"><g transform="translate(552.344751, 119.62952)"><path style="stroke:none" d="M 16.703125 1 C 13.617188 1 11.265625 0.109375 9.640625 -1.671875 C 8.023438 -3.460938 7.21875 -5.976562 7.21875 -9.21875 L 7.21875 -51.828125 C 7.21875 -55.148438 8.023438 -57.703125 9.640625 -59.484375 C 11.265625 -61.273438 13.617188 -62.171875 16.703125 -62.171875 C 19.691406 -62.171875 21.992188 -61.273438 23.609375 -59.484375 C 25.234375 -57.703125 26.046875 -55.148438 26.046875 -51.828125 L 26.046875 -9.21875 C 26.046875 -5.976562 25.253906 -3.460938 23.671875 -1.671875 C 22.097656 0.109375 19.773438 1 16.703125 1 Z M 16.703125 -72.390625 C 13.210938 -72.390625 10.53125 -73.195312 8.65625 -74.8125 C 6.789062 -76.4375 5.859375 -78.742188 5.859375 -81.734375 C 5.859375 -84.804688 6.789062 -87.148438 8.65625 -88.765625 C 10.53125 -90.390625 13.210938 -91.203125 16.703125 -91.203125 C 20.179688 -91.203125 22.832031 -90.390625 24.65625 -88.765625 C 26.488281 -87.148438 27.40625 -84.804688 27.40625 -81.734375 C 27.40625 -78.742188 26.488281 -76.4375 24.65625 -74.8125 C 22.832031 -73.195312 20.179688 -72.390625 16.703125 -72.390625 Z M 16.703125 -72.390625 "/></g></g><g style="fill:#5c6bc0;fill-opacity:1;"><g transform="translate(585.734351, 119.62952)"><path style="stroke:none" d="M 27.90625 1.375 C 23.425781 1.375 19.398438 0.503906 15.828125 -1.234375 C 12.253906 -2.984375 9.46875 -5.351562 7.46875 -8.34375 C 5.476562 -11.332031 4.484375 -14.695312 4.484375 -18.4375 C 4.484375 -22.925781 5.644531 -26.476562 7.96875 -29.09375 C 10.300781 -31.707031 14.082031 -33.570312 19.3125 -34.6875 C 24.539062 -35.8125 31.476562 -36.375 40.125 -36.375 L 46.71875 -36.375 L 46.71875 -26.65625 L 40.25 -26.65625 C 36.007812 -26.65625 32.582031 -26.425781 29.96875 -25.96875 C 27.351562 -25.519531 25.484375 -24.753906 24.359375 -23.671875 C 23.234375 -22.585938 22.671875 -21.09375 22.671875 -19.1875 C 22.671875 -16.863281 23.476562 -14.953125 25.09375 -13.453125 C 26.71875 -11.960938 29.066406 -11.21875 32.140625 -11.21875 C 34.554688 -11.21875 36.695312 -11.773438 38.5625 -12.890625 C 40.425781 -14.015625 41.898438 -15.550781 42.984375 -17.5 C 44.066406 -19.457031 44.609375 -21.679688 44.609375 -24.171875 L 44.609375 -38.5 C 44.609375 -42.15625 43.773438 -44.75 42.109375 -46.28125 C 40.453125 -47.820312 37.628906 -48.59375 33.640625 -48.59375 C 31.398438 -48.59375 28.96875 -48.320312 26.34375 -47.78125 C 23.726562 -47.238281 20.84375 -46.347656 17.6875 -45.109375 C 15.863281 -44.273438 14.242188 -44.085938 12.828125 -44.546875 C 11.421875 -45.003906 10.34375 -45.832031 9.59375 -47.03125 C 8.84375 -48.238281 8.46875 -49.566406 8.46875 -51.015625 C 8.46875 -52.472656 8.882812 -53.882812 9.71875 -55.25 C 10.550781 -56.625 11.921875 -57.644531 13.828125 -58.3125 C 17.734375 -59.882812 21.410156 -60.960938 24.859375 -61.546875 C 28.304688 -62.128906 31.484375 -62.421875 34.390625 -62.421875 C 40.785156 -62.421875 46.035156 -61.484375 50.140625 -59.609375 C 54.253906 -57.742188 57.347656 -54.878906 59.421875 -51.015625 C 61.503906 -47.160156 62.546875 -42.195312 62.546875 -36.125 L 62.546875 -8.46875 C 62.546875 -5.394531 61.796875 -3.023438 60.296875 -1.359375 C 58.804688 0.296875 56.648438 1.125 53.828125 1.125 C 51.003906 1.125 48.820312 0.296875 47.28125 -1.359375 C 45.75 -3.023438 44.984375 -5.394531 44.984375 -8.46875 L 44.984375 -13.078125 L 45.84375 -12.328125 C 45.351562 -9.503906 44.296875 -7.078125 42.671875 -5.046875 C 41.054688 -3.015625 39 -1.4375 36.5 -0.3125 C 34.007812 0.8125 31.144531 1.375 27.90625 1.375 Z M 27.90625 1.375 "/></g></g><g style="fill:#5c6bc0;fill-opacity:1;"><g transform="translate(655.1299, 119.62952)"><path style="stroke:none" d="M 16.703125 1.125 C 13.617188 1.125 11.265625 0.296875 9.640625 -1.359375 C 8.023438 -3.023438 7.21875 -5.394531 7.21875 -8.46875 L 7.21875 -52.703125 C 7.21875 -55.773438 8.023438 -58.117188 9.640625 -59.734375 C 11.265625 -61.359375 13.535156 -62.171875 16.453125 -62.171875 C 19.441406 -62.171875 21.722656 -61.359375 23.296875 -59.734375 C 24.878906 -58.117188 25.671875 -55.773438 25.671875 -52.703125 L 25.671875 -45.59375 L 24.296875 -49.71875 C 26.203125 -53.78125 29.046875 -56.910156 32.828125 -59.109375 C 36.609375 -61.316406 40.90625 -62.421875 45.71875 -62.421875 C 50.625 -62.421875 54.65625 -61.484375 57.8125 -59.609375 C 60.96875 -57.742188 63.332031 -54.921875 64.90625 -51.140625 C 66.488281 -47.367188 67.28125 -42.570312 67.28125 -36.75 L 67.28125 -8.46875 C 67.28125 -5.394531 66.46875 -3.023438 64.84375 -1.359375 C 63.226562 0.296875 60.882812 1.125 57.8125 1.125 C 54.820312 1.125 52.515625 0.296875 50.890625 -1.359375 C 49.273438 -3.023438 48.46875 -5.394531 48.46875 -8.46875 L 48.46875 -35.890625 C 48.46875 -40.117188 47.695312 -43.164062 46.15625 -45.03125 C 44.625 -46.90625 42.28125 -47.84375 39.125 -47.84375 C 35.132812 -47.84375 31.957031 -46.597656 29.59375 -44.109375 C 27.226562 -41.617188 26.046875 -38.296875 26.046875 -34.140625 L 26.046875 -8.46875 C 26.046875 -2.070312 22.929688 1.125 16.703125 1.125 Z M 16.703125 1.125 "/></g></g><g style="fill:#5c6bc0;fill-opacity:1;"><g transform="translate(729.259779, 119.62952)"><path style="stroke:none" d="M 27.90625 1.375 C 23.425781 1.375 19.398438 0.503906 15.828125 -1.234375 C 12.253906 -2.984375 9.46875 -5.351562 7.46875 -8.34375 C 5.476562 -11.332031 4.484375 -14.695312 4.484375 -18.4375 C 4.484375 -22.925781 5.644531 -26.476562 7.96875 -29.09375 C 10.300781 -31.707031 14.082031 -33.570312 19.3125 -34.6875 C 24.539062 -35.8125 31.476562 -36.375 40.125 -36.375 L 46.71875 -36.375 L 46.71875 -26.65625 L 40.25 -26.65625 C 36.007812 -26.65625 32.582031 -26.425781 29.96875 -25.96875 C 27.351562 -25.519531 25.484375 -24.753906 24.359375 -23.671875 C 23.234375 -22.585938 22.671875 -21.09375 22.671875 -19.1875 C 22.671875 -16.863281 23.476562 -14.953125 25.09375 -13.453125 C 26.71875 -11.960938 29.066406 -11.21875 32.140625 -11.21875 C 34.554688 -11.21875 36.695312 -11.773438 38.5625 -12.890625 C 40.425781 -14.015625 41.898438 -15.550781 42.984375 -17.5 C 44.066406 -19.457031 44.609375 -21.679688 44.609375 -24.171875 L 44.609375 -38.5 C 44.609375 -42.15625 43.773438 -44.75 42.109375 -46.28125 C 40.453125 -47.820312 37.628906 -48.59375 33.640625 -48.59375 C 31.398438 -48.59375 28.96875 -48.320312 26.34375 -47.78125 C 23.726562 -47.238281 20.84375 -46.347656 17.6875 -45.109375 C 15.863281 -44.273438 14.242188 -44.085938 12.828125 -44.546875 C 11.421875 -45.003906 10.34375 -45.832031 9.59375 -47.03125 C 8.84375 -48.238281 8.46875 -49.566406 8.46875 -51.015625 C 8.46875 -52.472656 8.882812 -53.882812 9.71875 -55.25 C 10.550781 -56.625 11.921875 -57.644531 13.828125 -58.3125 C 17.734375 -59.882812 21.410156 -60.960938 24.859375 -61.546875 C 28.304688 -62.128906 31.484375 -62.421875 34.390625 -62.421875 C 40.785156 -62.421875 46.035156 -61.484375 50.140625 -59.609375 C 54.253906 -57.742188 57.347656 -54.878906 59.421875 -51.015625 C 61.503906 -47.160156 62.546875 -42.195312 62.546875 -36.125 L 62.546875 -8.46875 C 62.546875 -5.394531 61.796875 -3.023438 60.296875 -1.359375 C 58.804688 0.296875 56.648438 1.125 53.828125 1.125 C 51.003906 1.125 48.820312 0.296875 47.28125 -1.359375 C 45.75 -3.023438 44.984375 -5.394531 44.984375 -8.46875 L 44.984375 -13.078125 L 45.84375 -12.328125 C 45.351562 -9.503906 44.296875 -7.078125 42.671875 -5.046875 C 41.054688 -3.015625 39 -1.4375 36.5 -0.3125 C 34.007812 0.8125 31.144531 1.375 27.90625 1.375 Z M 27.90625 1.375 "/></g></g><g style="fill:#5c6bc0;fill-opacity:1;"><g transform="translate(798.655791, 119.62952)"><path style="stroke:none" d=""/></g></g></g></svg>