<svg xmlns="http://www.w3.org/2000/svg" version="1.2" viewBox="0 0 900 201"><defs><clipPath id="a"><path d="M5.21094 0H169v200H5.21094Zm0 0"/></clipPath><clipPath id="c"><path d="M564 33h.9961v1H564Zm0 0"/></clipPath><clipPath id="b"><path d="M0 0h565v42H0z"/></clipPath><clipPath id="d"><path d="M0 0h579v189H0z"/></clipPath><clipPath id="e"><path d="M292 0h4v200.0039h-4Zm0 0"/></clipPath></defs><path d="M169.4414 128.92969v44.35156c-21.78515 0-32.84374-19.67969-32.84374-28.6914v-36.45313c11.78906-8.75781 19.13672-25.36328 21.33593-32.57031 2.72266-1.5547 6.7461-1.38672 8.42188-1.10938 5.94922 24.39453 24.46875 30.39844 32.98437 30.35547 11.69922-.32422 35.08985-7.625 35.08985-34.23828 0-26.61328-22.17578-35.39063-33.26563-36.45313H155.125c-6.73828-15.80078-22.1875-27.67578-30.74219-32.15625 24.9414 0 75.58594-.26171 78.60547 0 3.23047.27735 9.40625.83204 18.10938 3.60157 18.38672 5.85937 29.82812 19.54687 34.53125 26.61328 3.74218 4.89843 11.22656 19.4336 11.22656 38.39453 0 18.96094-8.79688 34.42187-13.1914 39.78125-3.83985 6.08594-16.6797 19.6211-37.33985 25.08594-20.66016 5.46875-39.86328-2.0625-46.88281-6.51172Zm0 0" style="stroke:none;fill-rule:nonzero;fill:#5c6bc0;fill-opacity:1"/><g clip-path="url(#a)"><path d="m135.05078 160.53125-29.47656-45.32422c19.65234-2.77344 31.02344-11.5039 41.6914-32.01953 10.01954-19.26563 4.86329-39.45703 0-49.0664-10.66796-17.05079-16.60937-23.57422-36.07421-29.80079-25.12891-8.03906-42.53125-3.1875-59.23438 3.88281-15.09375 6.38672-34.53125 26.47266-39.86719 39.91797-2.89453 7.29688-6.8789 20.375-6.8789 25.64063v42.41406c6.73828-16.91016 24.1914-29.40625 33.26953-32.98828 0-43.35547 37.99219-50.40625 56.98828-48.51172 7.20703 1.15625 21.61719 7.6211 21.61719 24.25781 0 16.63282-14.41016 23.09766-21.61719 24.25391H65.14844c-40.19922 0-59.65625 36.8711-59.65625 58.07813l-.28125 57.3828c22.17968 0 33.55078-19.8203 33.55078-31.32421-.09375-6.46875-.11328-20.73828.5586-26.0586.67577-5.32421.84374-11.21484 8.84374-15.9414 9.40625-5.35938 20.92969-4.85156 23.58203-.55469 10.66797 17.28125 34.19532 54.3086 42.95313 64.17578 8.75781 9.86719 21.14844 11.41406 26.25 10.94922 17.6289 0 25.5-12.75 27.23047-19.125-15.94531 0-28.73047-13.49219-33.1289-20.23828Zm0 0" style="stroke:none;fill-rule:nonzero;fill:#5c6bc0;fill-opacity:1"/></g><g clip-path="url(#b)" transform="translate(328 156)"><g style="fill:#5c6bc0;fill-opacity:1"><path d="M1.96875 0v-27.5h15.70313v3.9375H5.89062v7.84375h11.78125v3.9375H5.89063V0Zm15.70313-15.71875v-7.84375h3.9375v7.84375Zm0 0" style="stroke:none" transform="translate(.852 33.15593)"/></g><g style="fill:#5c6bc0;fill-opacity:1"><path d="M1.96875 0v-27.5h15.70313v3.9375H5.89062v7.84375h11.78125v3.9375H13.75v3.92188H9.82812v-3.92188h-3.9375V0ZM13.75-3.92188v-3.9375h3.92188v3.9375ZM17.67188 0v-3.92188h3.9375V0Zm0-15.71875v-7.84375h3.9375v7.84375Zm0 0" style="stroke:none" transform="translate(30.29074 33.15593)"/></g><g style="fill:#5c6bc0;fill-opacity:1"><path d="M1.96875 0v-27.5h3.92188V0Zm0 0" style="stroke:none" transform="translate(59.72948 33.15593)"/></g><g style="fill:#5c6bc0;fill-opacity:1"><path d="M17.67188 0v-11.78125H13.75v-3.9375h3.92188V-27.5h3.9375V0ZM1.96875 0v-27.5h3.92188v3.9375h3.9375v3.92188h-3.9375V0Zm7.85938-15.71875v-3.92188H13.75v3.92188Zm0 0" style="stroke:none" transform="translate(73.47116 33.15593)"/></g><g style="fill:#5c6bc0;fill-opacity:1"><path d="M9.82813 0v-23.5625H1.96875V-27.5h19.64063v3.9375H13.75V0Zm0 0" style="stroke:none" transform="translate(102.9099 33.15593)"/></g><g style="fill:#5c6bc0;fill-opacity:1"><path d="M1.96875 0v-27.5h3.92188V0Zm0 0" style="stroke:none" transform="translate(132.34864 33.15593)"/></g><g style="fill:#5c6bc0;fill-opacity:1"><path d="M17.67188 0v-11.78125H13.75v-3.9375h3.92188V-27.5h3.9375V0ZM1.96875 0v-27.5h3.92188v3.9375h3.9375v3.92188h-3.9375V0Zm7.85938-15.71875v-3.92188H13.75v3.92188Zm0 0" style="stroke:none" transform="translate(146.0903 33.15593)"/></g><g style="fill:#5c6bc0;fill-opacity:1"><path d="M17.67188-3.92188V0H5.89062v-3.92188Zm-15.70313 0V-23.5625h3.92188v19.64063ZM5.89063-23.5625V-27.5h11.78125v3.9375ZM13.75-11.78125v-3.9375h7.85938v11.79688h-3.9375v-7.85938Zm3.92188-7.85938v-3.92187h3.9375v3.92188Zm0 0" style="stroke:none" transform="translate(175.52905 33.15593)"/></g><g style="fill:#5c6bc0;fill-opacity:1"><path d="M13.75-3.92188V0H5.89062v-3.92188Zm-11.78125 0v-7.85937h3.92188v7.85938Zm0-11.79687v-7.84375h3.92188v7.84375Zm3.92188 3.9375v-3.9375H13.75v3.9375Zm0-11.78125V-27.5H13.75v3.9375ZM13.75-3.92187v-7.85938h7.85938v3.92188h-3.9375v3.9375Zm0-11.79688v-7.84375h3.92188v7.84375ZM17.67188 0v-3.92188h3.9375V0Zm3.9375-11.78125v-3.9375h3.92187v3.9375Zm0 0" style="stroke:none" transform="translate(220.6716 33.15593)"/></g><g style="fill:#5c6bc0;fill-opacity:1"><path d="M1.96875 0v-27.5h15.70313v3.9375H5.89062v7.84375h11.78125v3.9375H5.89063V0Zm15.70313-15.71875v-7.84375h3.9375v7.84375Zm0 0" style="stroke:none" transform="translate(269.73843 33.15593)"/></g><g style="fill:#5c6bc0;fill-opacity:1"><path d="M1.96875 0v-27.5h19.64063v3.9375H5.89062v7.84375h11.78125v3.9375H5.89063v7.85938H21.5625V0Zm0 0" style="stroke:none" transform="translate(299.17717 33.15593)"/></g><g style="fill:#5c6bc0;fill-opacity:1"><path d="M1.96875 0v-27.5h15.70313v3.9375H5.89062v7.84375h11.78125v3.9375H13.75v3.92188H9.82812v-3.92188h-3.9375V0ZM13.75-3.92188v-3.9375h3.92188v3.9375ZM17.67188 0v-3.92188h3.9375V0Zm0-15.71875v-7.84375h3.9375v7.84375Zm0 0" style="stroke:none" transform="translate(328.6159 33.15593)"/></g><g style="fill:#5c6bc0;fill-opacity:1"><path d="M1.96875-3.92188V-23.5625h3.92188v19.64063ZM5.89063 0v-3.92188h11.78125V0Zm0-23.5625V-27.5h11.78125v3.9375ZM17.67188-3.92187v-3.9375h3.9375v3.9375Zm0-15.71875v-3.92188h3.9375v3.92188Zm0 0" style="stroke:none" transform="translate(358.05465 33.15593)"/></g><g style="fill:#5c6bc0;fill-opacity:1"><path d="M1.96875 0v-27.5h19.64063v3.9375H5.89062v7.84375h11.78125v3.9375H5.89063v7.85938H21.5625V0Zm0 0" style="stroke:none" transform="translate(387.49338 33.15593)"/></g><g style="fill:#5c6bc0;fill-opacity:1"><path d="M9.82813 0v-23.5625H1.96875V-27.5h19.64063v3.9375H13.75V0Zm0 0" style="stroke:none" transform="translate(416.93212 33.15593)"/></g><g style="fill:#5c6bc0;fill-opacity:1"><path d="M1.96875 0v-23.5625h3.92188v11.78125h11.78125V-23.5625h3.9375V0h-3.9375v-7.85938H5.89062V0Zm3.92188-23.5625V-27.5h11.78125v3.9375Zm0 0" style="stroke:none" transform="translate(446.37086 33.15593)"/></g><g style="fill:#5c6bc0;fill-opacity:1"><path d="M1.96875 0v-27.5h3.92188v11.78125H13.75v3.9375H5.89062V0ZM13.75-7.85938v-3.92187h3.92188v3.92188Zm0-7.85937v-3.92188h3.92188v3.92188ZM17.67188 0v-7.85938h3.9375V0Zm0-19.64063V-27.5h3.9375v7.85938Zm0 0" style="stroke:none" transform="translate(475.8096 33.15593)"/></g><g style="fill:#5c6bc0;fill-opacity:1"><path d="M1.96875 0v-23.5625h3.92188v11.78125h11.78125V-23.5625h3.9375V0h-3.9375v-7.85938H5.89062V0Zm3.92188-23.5625V-27.5h11.78125v3.9375Zm0 0" style="stroke:none" transform="translate(505.24834 33.15593)"/></g><g style="fill:#5c6bc0;fill-opacity:1"><path d="M17.67188 0v-11.78125H13.75v-3.9375h3.92188V-27.5h3.9375V0ZM1.96875 0v-27.5h3.92188v3.9375h3.9375v3.92188h-3.9375V0Zm7.85938-15.71875v-3.92188H13.75v3.92188Zm0 0" style="stroke:none" transform="translate(534.68708 33.15593)"/></g></g><g clip-path="url(#d)" transform="translate(318)"><g style="fill:#5c6bc0;fill-opacity:1"><path d="M22.375 1.48438c-4.16797 0-7.35156-1.09376-9.54688-3.28125C10.64063-3.9922 9.54688-7.125 9.54688-11.1875v-58.39063c0-4.0625 1.06641-7.16015 3.20313-9.29687 2.13281-2.13281 5.125-3.20313 8.96875-3.20313 3.94531 0 6.96094 1.07032 9.04688 3.20313 2.08203 2.13672 3.125 5.23438 3.125 9.29688v8.54687h-1.65626c1.32032-6.58203 4.22657-11.67969 8.71876-15.29688 4.5-3.61328 10.3125-5.64453 17.4375-6.09374 2.75-.21876 4.86328.46874 6.34374 2.0625 1.47657 1.59374 2.26954 4.19921 2.375 7.8125.21876 3.40624-.46874 6.10156-2.0625 8.07812-1.58593 1.96875-4.24218 3.17188-7.96874 3.60938l-3.78126.32812c-6.25.54297-10.88671 2.35156-13.90624 5.42188-3.01172 3.07421-4.51563 7.51562-4.51563 13.32812v30.59375c0 4.0625-1.07422 7.19531-3.21875 9.39063-2.13672 2.1875-5.23047 3.28125-9.28125 3.28125Zm0 0" style="stroke:none" transform="translate(2.4253 129.4041)"/></g><g style="fill:#5c6bc0;fill-opacity:1"><path d="M48.35938 1.8125c-8.65626 0-16.19532-1.69922-22.60938-5.09375-6.41797-3.40625-11.38281-8.28516-14.89063-14.64063-3.51171-6.36328-5.26562-13.8789-5.26562-22.54687 0-6.46875.98438-12.28125 2.95313-17.4375 1.97656-5.15625 4.85937-9.5664 8.64062-13.23438 3.78125-3.67578 8.30078-6.47265 13.5625-8.39062 5.26953-1.92578 11.14063-2.89063 17.60938-2.89063 8.66406 0 16.20703 1.70313 22.625 5.10938 6.41406 3.39844 11.40624 8.21875 14.96874 14.46875s5.34376 13.71094 5.34376 22.375c0 6.58594-1.01563 12.45313-3.04688 17.60938-2.02344 5.14843-4.89844 9.58593-8.625 13.3125-3.73047 3.73046-8.25781 6.55859-13.57813 8.48437-5.32421 1.91406-11.21874 2.875-17.6875 2.875Zm0-18.59375c3.625 0 6.75-.875 9.375-2.625 2.6328-1.75781 4.71874-4.36328 6.25-7.8125 1.53906-3.45703 2.3125-7.875 2.3125-13.25 0-8-1.64844-13.89063-4.9375-17.67188-3.29297-3.78906-7.625-5.6875-13-5.6875-3.51172 0-6.60938.82422-9.29688 2.46876-2.6875 1.64843-4.77344 4.19921-6.25 7.65624-1.48047 3.44922-2.21875 7.85938-2.21875 13.23438 0 8.01172 1.64453 13.96484 4.9375 17.85938 3.28906 3.88671 7.5664 5.82812 12.82813 5.82812Zm0 0" style="stroke:none" transform="translate(68.71894 129.4041)"/></g><g style="fill:#5c6bc0;fill-opacity:1"><path d="M43.75 1.48438c-3.17969 0-5.97656-.85157-8.39063-2.54688-2.40624-1.70703-4.32421-4.25781-5.75-7.65625l-24.84374-57.25c-1.19922-2.84375-1.63672-5.5-1.3125-7.96875.33203-2.46875 1.5078-4.4414 3.53125-5.92188 2.03125-1.47656 4.85937-2.21874 8.48437-2.21874 2.95703 0 5.36719.6875 7.23438 2.0625 1.86328 1.36718 3.5078 3.96484 4.9375 7.79687l19.40624 49.35938h-5.26562L62.01563-72.375c1.53124-3.72656 3.22656-6.27344 5.09374-7.64063 1.86329-1.375 4.44141-2.0625 7.73438-2.0625 2.85156 0 5.1289.7422 6.82813 2.21876 1.6953 1.48046 2.73828 3.42968 3.125 5.84374.3828 2.40626-.07813 5.03907-1.39063 7.89063L58.0625-8.71875c-1.41797 3.51172-3.3086 6.08984-5.67188 7.73438C50.03516.66016 47.15626 1.48438 43.75 1.48438Zm0 0" style="stroke:none" transform="translate(163.63568 129.4041)"/></g><g style="fill:#5c6bc0;fill-opacity:1"><path d="M22.04688 1.3125c-4.0625 0-7.16407-1.17969-9.29688-3.53125-2.13672-2.35156-3.20313-5.67188-3.20313-9.95313V-68.4375c0-4.38281 1.06641-7.7539 3.20313-10.10938 2.13281-2.35156 5.23438-3.53124 9.29688-3.53124 3.9453 0 6.98828 1.17968 9.125 3.53124C33.30468-76.1914 34.375-72.8203 34.375-68.4375v56.26563c0 4.28125-1.04297 7.60156-3.125 9.95312C29.16406.13281 26.09766 1.3125 22.04687 1.3125Zm0-96.89063c-4.60547 0-8.14063-1.0664-10.60938-3.20312-2.46875-2.13281-3.70313-5.17578-3.70313-9.125 0-4.0625 1.23438-7.16016 3.70313-9.29688 2.46875-2.1328 6.0039-3.20312 10.60938-3.20312 4.60156 0 8.10937 1.07031 10.51562 3.20313 2.41406 2.13671 3.625 5.23437 3.625 9.29687 0 3.94922-1.21094 6.99219-3.625 9.125-2.40625 2.13672-5.91406 3.20313-10.51563 3.20313Zm0 0" style="stroke:none" transform="translate(251.47894 129.4041)"/></g><g style="fill:#5c6bc0;fill-opacity:1"><path d="M36.84375 1.8125c-5.91797 0-11.23438-1.15234-15.95313-3.45313-4.71874-2.30078-8.39843-5.42578-11.03124-9.375-2.625-3.9453-3.9375-8.39062-3.9375-13.32812 0-5.92578 1.53515-10.61328 4.60937-14.0625 3.07031-3.45703 8.0625-5.92578 14.96875-7.40625 6.90625-1.47656 16.0625-2.21875 27.46875-2.21875h8.71875v12.82813h-8.54688c-5.59374 0-10.12109.30468-13.57812.90624-3.46094.60547-5.92969 1.6211-7.40625 3.04688-1.48047 1.42969-2.21875 3.40234-2.21875 5.92188 0 3.0625 1.0664 5.58593 3.20313 7.5625 2.14453 1.96874 5.24218 2.95312 9.29687 2.95312 3.1875 0 6.00781-.73828 8.46875-2.21875 2.46875-1.47656 4.41406-3.5039 5.84375-6.07813 1.42578-2.58203 2.14063-5.51562 2.14063-8.79687v-18.92188c0-4.8203-1.10157-8.25-3.29688-10.28124-2.1875-2.03126-5.91406-3.04688-11.17188-3.04688-2.96874 0-6.18359.35938-9.64062 1.07813-3.44922.71093-7.25781 1.88671-11.42188 3.53124-2.41796 1.09376-4.55859 1.33985-6.42187.73438-1.86719-.60156-3.29297-1.69531-4.28125-3.28125-.98047-1.59375-1.46875-3.34766-1.46875-5.26563 0-1.91406.54688-3.78124 1.64063-5.59374 1.09375-1.8125 2.90625-3.15626 5.4375-4.03126 5.14453-2.08203 9.99218-3.5078 14.54687-4.28124 4.55078-.76954 8.75-1.15626 12.59375-1.15626 8.4375 0 15.36719 1.23438 20.79688 3.70313 5.4375 2.46875 9.52343 6.25781 12.26562 11.35938 2.73828 5.09374 4.10938 11.64843 4.10938 19.65624v36.51563c0 4.0625-.9922 7.19531-2.96876 9.39063-1.96874 2.1875-4.8203 3.28125-8.54687 3.28125-3.73047 0-6.60938-1.09376-8.64063-3.28125-2.02343-2.19532-3.03124-5.32813-3.03124-9.39063v-6.07813l1.14062.98438c-.65625 3.73047-2.05469 6.9375-4.1875 9.625-2.13672 2.6875-4.85156 4.77344-8.14063 6.25C44.91016 1.07031 41.125 1.8125 36.84376 1.8125Zm0 0" style="stroke:none" transform="translate(295.56507 129.4041)"/></g><g style="fill:#5c6bc0;fill-opacity:1"><path d="M22.04688 1.48438c-4.0625 0-7.16407-1.09376-9.29688-3.28125C10.61328-3.9922 9.54687-7.125 9.54687-11.1875v-58.39063c0-4.0625 1.06641-7.16015 3.20313-9.29687 2.13281-2.13281 5.125-3.20313 8.96875-3.20313 3.94531 0 6.96094 1.07032 9.04688 3.20313 2.08203 2.13672 3.125 5.23438 3.125 9.29688v9.375l-1.8125-5.4375c2.51953-5.375 6.27343-9.51563 11.26562-12.42188 4.98828-2.90625 10.66406-4.35938 17.03125-4.35938 6.46875 0 11.78516 1.23438 15.95313 3.70313 4.16406 2.46875 7.28906 6.19922 9.375 11.1875 2.08203 4.99219 3.125 11.32422 3.125 19v37.34375c0 4.0625-1.07032 7.19531-3.20313 9.39063-2.13672 2.1875-5.23438 3.28125-9.29688 3.28125-3.94921 0-6.99609-1.09376-9.14062-3.28125-2.13672-2.19532-3.20313-5.32813-3.20313-9.39063V-47.375c0-5.59375-1.01562-9.625-3.04687-12.09375-2.02344-2.46875-5.11719-3.70313-9.28125-3.70313-5.27344 0-9.46875 1.64844-12.59375 4.9375-3.125 3.29297-4.6875 7.6797-4.6875 13.15626v33.89062c0 8.44922-4.10938 12.67188-12.32813 12.67188Zm0 0" style="stroke:none" transform="translate(387.19185 129.4041)"/></g><g style="fill:#5c6bc0;fill-opacity:1"><path d="M36.84375 1.8125c-5.91797 0-11.23438-1.15234-15.95313-3.45313-4.71874-2.30078-8.39843-5.42578-11.03124-9.375-2.625-3.9453-3.9375-8.39062-3.9375-13.32812 0-5.92578 1.53515-10.61328 4.60937-14.0625 3.07031-3.45703 8.0625-5.92578 14.96875-7.40625 6.90625-1.47656 16.0625-2.21875 27.46875-2.21875h8.71875v12.82813h-8.54688c-5.59374 0-10.12109.30468-13.57812.90624-3.46094.60547-5.92969 1.6211-7.40625 3.04688-1.48047 1.42969-2.21875 3.40234-2.21875 5.92188 0 3.0625 1.0664 5.58593 3.20313 7.5625 2.14453 1.96874 5.24218 2.95312 9.29687 2.95312 3.1875 0 6.00781-.73828 8.46875-2.21875 2.46875-1.47656 4.41406-3.5039 5.84375-6.07813 1.42578-2.58203 2.14063-5.51562 2.14063-8.79687v-18.92188c0-4.8203-1.10157-8.25-3.29688-10.28124-2.1875-2.03126-5.91406-3.04688-11.17188-3.04688-2.96874 0-6.18359.35938-9.64062 1.07813-3.44922.71093-7.25781 1.88671-11.42188 3.53124-2.41796 1.09376-4.55859 1.33985-6.42187.73438-1.86719-.60156-3.29297-1.69531-4.28125-3.28125-.98047-1.59375-1.46875-3.34766-1.46875-5.26563 0-1.91406.54688-3.78124 1.64063-5.59374 1.09375-1.8125 2.90625-3.15626 5.4375-4.03126 5.14453-2.08203 9.99218-3.5078 14.54687-4.28124 4.55078-.76954 8.75-1.15626 12.59375-1.15626 8.4375 0 15.36719 1.23438 20.79688 3.70313 5.4375 2.46875 9.52343 6.25781 12.26562 11.35938 2.73828 5.09374 4.10938 11.64843 4.10938 19.65624v36.51563c0 4.0625-.9922 7.19531-2.96876 9.39063-1.96874 2.1875-4.8203 3.28125-8.54687 3.28125-3.73047 0-6.60938-1.09376-8.64063-3.28125-2.02343-2.19532-3.03124-5.32813-3.03124-9.39063v-6.07813l1.14062.98438c-.65625 3.73047-2.05469 6.9375-4.1875 9.625-2.13672 2.6875-4.85156 4.77344-8.14063 6.25C44.91016 1.07031 41.125 1.8125 36.84376 1.8125Zm0 0" style="stroke:none" transform="translate(485.06962 129.4041)"/></g></g><g clip-path="url(#e)"><path d="M.0014 2.00016h267.99861" style="fill:none;stroke-width:4;stroke-linecap:butt;stroke-linejoin:miter;stroke:#5c6bc0;stroke-opacity:1;stroke-miterlimit:4" transform="rotate(-90 246.0829 -46.07365) scale(.7463)"/></g></svg>
